<mxfile host="app.diagrams.net" agent="Mozilla/5.0 (Macintosh; Intel Mac OS X 10_15_7) AppleWebKit/537.36 (KHTML, like Gecko) Chrome/131.0.0.0 Safari/537.36" version="25.0.3">
  <diagram name="Page-1" id="zV4AsKg48oseKtzj92Qw">
    <mxGraphModel dx="1080" dy="692" grid="1" gridSize="10" guides="1" tooltips="1" connect="1" arrows="1" fold="1" page="1" pageScale="1" pageWidth="1100" pageHeight="1700" math="0" shadow="0">
      <root>
        <mxCell id="0" />
        <mxCell id="1" parent="0" />
        <mxCell id="wiGKPjVVIxpK9OQSMamk-94" style="edgeStyle=orthogonalEdgeStyle;rounded=0;orthogonalLoop=1;jettySize=auto;html=1;entryX=0;entryY=0.5;entryDx=0;entryDy=0;" parent="1" source="wiGKPjVVIxpK9OQSMamk-3" target="wiGKPjVVIxpK9OQSMamk-4" edge="1">
          <mxGeometry relative="1" as="geometry" />
        </mxCell>
        <mxCell id="wiGKPjVVIxpK9OQSMamk-4" value="" style="image;aspect=fixed;perimeter=ellipsePerimeter;html=1;align=center;shadow=0;dashed=0;spacingTop=3;image=img/lib/active_directory/web_server.svg;" parent="1" vertex="1">
          <mxGeometry x="470" y="210" width="60" height="75" as="geometry" />
        </mxCell>
        <mxCell id="wiGKPjVVIxpK9OQSMamk-77" value="" style="group" parent="1" vertex="1" connectable="0">
          <mxGeometry x="670" y="203.22" width="80.39999999999998" height="102.84" as="geometry" />
        </mxCell>
        <mxCell id="wiGKPjVVIxpK9OQSMamk-75" value="" style="image;aspect=fixed;perimeter=ellipsePerimeter;html=1;align=center;shadow=0;dashed=0;spacingTop=3;image=img/lib/active_directory/generic_server.svg;" parent="wiGKPjVVIxpK9OQSMamk-77" vertex="1">
          <mxGeometry width="40.79101805538763" height="72.83916124090386" as="geometry" />
        </mxCell>
        <mxCell id="wiGKPjVVIxpK9OQSMamk-76" value="" style="aspect=fixed;sketch=0;html=1;dashed=0;whitespace=wrap;verticalLabelPosition=bottom;verticalAlign=top;fillColor=#2875E2;strokeColor=#ffffff;points=[[0.005,0.63,0],[0.1,0.2,0],[0.9,0.2,0],[0.5,0,0],[0.995,0.63,0],[0.72,0.99,0],[0.5,1,0],[0.28,0.99,0]];shape=mxgraph.kubernetes.icon2;prIcon=api" parent="wiGKPjVVIxpK9OQSMamk-77" vertex="1">
          <mxGeometry x="21.51" y="37.33" width="36.99" height="35.51" as="geometry" />
        </mxCell>
        <mxCell id="wiGKPjVVIxpK9OQSMamk-154" value="Application Server" style="text;html=1;align=center;verticalAlign=middle;resizable=0;points=[];autosize=1;strokeColor=none;fillColor=none;" parent="wiGKPjVVIxpK9OQSMamk-77" vertex="1">
          <mxGeometry x="-39.60000000000002" y="72.84" width="120" height="30" as="geometry" />
        </mxCell>
        <mxCell id="wiGKPjVVIxpK9OQSMamk-89" style="edgeStyle=orthogonalEdgeStyle;rounded=0;orthogonalLoop=1;jettySize=auto;html=1;exitX=0.5;exitY=1.017;exitDx=0;exitDy=0;exitPerimeter=0;" parent="1" source="wiGKPjVVIxpK9OQSMamk-145" edge="1">
          <mxGeometry relative="1" as="geometry">
            <mxPoint x="109.99727272727274" y="100" as="sourcePoint" />
            <mxPoint x="270" y="236" as="targetPoint" />
            <Array as="points">
              <mxPoint x="85" y="236" />
            </Array>
          </mxGeometry>
        </mxCell>
        <mxCell id="wiGKPjVVIxpK9OQSMamk-90" style="edgeStyle=orthogonalEdgeStyle;rounded=0;orthogonalLoop=1;jettySize=auto;html=1;" parent="1" source="wiGKPjVVIxpK9OQSMamk-2" edge="1">
          <mxGeometry relative="1" as="geometry">
            <mxPoint x="277" y="269" as="targetPoint" />
            <Array as="points">
              <mxPoint x="85" y="270" />
              <mxPoint x="277" y="270" />
            </Array>
          </mxGeometry>
        </mxCell>
        <mxCell id="wiGKPjVVIxpK9OQSMamk-93" style="edgeStyle=orthogonalEdgeStyle;rounded=0;orthogonalLoop=1;jettySize=auto;html=1;entryX=0;entryY=0.5;entryDx=0;entryDy=0;entryPerimeter=0;" parent="1" source="wiGKPjVVIxpK9OQSMamk-1" target="wiGKPjVVIxpK9OQSMamk-6" edge="1">
          <mxGeometry relative="1" as="geometry" />
        </mxCell>
        <mxCell id="wiGKPjVVIxpK9OQSMamk-95" style="edgeStyle=orthogonalEdgeStyle;rounded=0;orthogonalLoop=1;jettySize=auto;html=1;entryX=0;entryY=0.608;entryDx=0;entryDy=0;entryPerimeter=0;" parent="1" source="wiGKPjVVIxpK9OQSMamk-4" target="wiGKPjVVIxpK9OQSMamk-75" edge="1">
          <mxGeometry relative="1" as="geometry" />
        </mxCell>
        <mxCell id="wiGKPjVVIxpK9OQSMamk-96" value="" style="group" parent="1" vertex="1" connectable="0">
          <mxGeometry x="951" y="18.499999999999986" width="80" height="106.6995433106236" as="geometry" />
        </mxCell>
        <mxCell id="wiGKPjVVIxpK9OQSMamk-72" value="" style="image;aspect=fixed;perimeter=ellipsePerimeter;html=1;align=center;shadow=0;dashed=0;spacingTop=3;image=img/lib/active_directory/generic_server.svg;" parent="wiGKPjVVIxpK9OQSMamk-96" vertex="1">
          <mxGeometry x="17.307692307692264" width="40.15384615384615" height="71.70230769230768" as="geometry" />
        </mxCell>
        <mxCell id="wiGKPjVVIxpK9OQSMamk-86" value="Aggregator&lt;div&gt;&lt;span style=&quot;background-color: initial;&quot;&gt;Service&lt;/span&gt;&lt;/div&gt;" style="text;html=1;align=center;verticalAlign=middle;resizable=0;points=[];autosize=1;strokeColor=none;fillColor=none;" parent="wiGKPjVVIxpK9OQSMamk-96" vertex="1">
          <mxGeometry y="66.6995433106236" width="80" height="40" as="geometry" />
        </mxCell>
        <mxCell id="wiGKPjVVIxpK9OQSMamk-107" value="" style="group" parent="1" vertex="1" connectable="0">
          <mxGeometry x="755" y="651" width="100" height="111.42999999999995" as="geometry" />
        </mxCell>
        <mxCell id="wiGKPjVVIxpK9OQSMamk-104" value="" style="image;aspect=fixed;perimeter=ellipsePerimeter;html=1;align=center;shadow=0;dashed=0;spacingTop=3;image=img/lib/active_directory/generic_server.svg;" parent="wiGKPjVVIxpK9OQSMamk-107" vertex="1">
          <mxGeometry x="15" width="40" height="71.43" as="geometry" />
        </mxCell>
        <mxCell id="wiGKPjVVIxpK9OQSMamk-106" value="Segment&amp;nbsp;&lt;span style=&quot;background-color: initial;&quot;&gt;Producer/&lt;/span&gt;&lt;div&gt;&lt;span style=&quot;background-color: initial;&quot;&gt;Server Allocator&lt;/span&gt;&lt;/div&gt;" style="text;html=1;align=center;verticalAlign=middle;resizable=0;points=[];autosize=1;strokeColor=none;fillColor=none;" parent="wiGKPjVVIxpK9OQSMamk-107" vertex="1">
          <mxGeometry x="-30" y="71.42999999999995" width="130" height="40" as="geometry" />
        </mxCell>
        <mxCell id="wiGKPjVVIxpK9OQSMamk-110" value="" style="group" parent="1" vertex="1" connectable="0">
          <mxGeometry x="745" y="16" width="90" height="105" as="geometry" />
        </mxCell>
        <mxCell id="wiGKPjVVIxpK9OQSMamk-85" value="Pub/Sub" style="sketch=0;html=1;verticalAlign=top;labelPosition=center;verticalLabelPosition=bottom;align=center;spacingTop=-6;fontSize=11;fontStyle=1;fontColor=#999999;shape=image;aspect=fixed;imageAspect=0;image=data:image/svg+xml,PHN2ZyB4bWxucz0iaHR0cDovL3d3dy53My5vcmcvMjAwMC9zdmciIHhtbG5zOnY9Imh0dHBzOi8vdmVjdGEuaW8vbmFubyIgd2lkdGg9IjE4LjMxOTk5OTY5NDgyNDIyIiBoZWlnaHQ9IjIwLjAwMDAwMTkwNzM0ODYzMyIgdmlld0JveD0iMCAwIDE4LjMxOTk5OTY5NDgyNDIyIDIwLjAwMDAwMTkwNzM0ODYzMyI+JiN4YTsJPHN0eWxlIHR5cGU9InRleHQvY3NzIj4mI3hhOwkuc3Qwe2ZpbGw6IzY2OWRmNjt9JiN4YTsJLnN0MXtmaWxsOiM0Mjg1ZjQ7fSYjeGE7CS5zdDJ7ZmlsbDojYWVjYmZhO30mI3hhOwk8L3N0eWxlPiYjeGE7CTxkZWZzPiYjeGE7CQk8ZmlsdGVyIGlkPSJBIiB4PSI0LjY0IiB5PSI0LjE5IiB3aWR0aD0iMTQuNzMiIGhlaWdodD0iMTIuNzYiIGZpbHRlclVuaXRzPSJ1c2VyU3BhY2VPblVzZSIgY29sb3ItaW50ZXJwb2xhdGlvbi1maWx0ZXJzPSJzUkdCIj4mI3hhOwkJCTxmZUZsb29kIGZsb29kLWNvbG9yPSIjZmZmIi8+JiN4YTsJCQk8ZmVCbGVuZCBpbj0iU291cmNlR3JhcGhpYyIvPiYjeGE7CQk8L2ZpbHRlcj4mI3hhOwkJPG1hc2sgaWQ9IkIiIHg9IjQuNjQiIHk9IjQuMTkiIHdpZHRoPSIxNC43MyIgaGVpZ2h0PSIxMi43NiIgbWFza1VuaXRzPSJ1c2VyU3BhY2VPblVzZSI+JiN4YTsJCQk8Y2lyY2xlIGN4PSIxMiIgY3k9IjEyLjIzIiByPSIzLjU4IiBmaWx0ZXI9InVybCgjQSkiLz4mI3hhOwkJPC9tYXNrPiYjeGE7CTwvZGVmcz4mI3hhOwk8ZyBjbGFzcz0ic3QwIj4mI3hhOwkJPGNpcmNsZSBjeD0iMTYuMTMiIGN5PSI2LjIxIiByPSIxLjcyIi8+JiN4YTsJCTxjaXJjbGUgY3g9IjIuMTkiIGN5PSI2LjIxIiByPSIxLjcyIi8+JiN4YTsJCTxjaXJjbGUgY3g9IjkuMTYiIGN5PSIxOC4yOCIgcj0iMS43MiIvPiYjeGE7CTwvZz4mI3hhOwk8ZyBtYXNrPSJ1cmwoI0IpIiB0cmFuc2Zvcm09InRyYW5zbGF0ZSgtMi44NCAtMikiPiYjeGE7CQk8cGF0aCB0cmFuc2Zvcm09Im1hdHJpeCguNSAtLjg3IC44NyAuNSAtNC41OSAyMC41MykiIGQ9Ik0xNC42OSAxMC4yMmgxLjU5djguMDRoLTEuNTl6IiBjbGFzcz0ic3QxIi8+JiN4YTsJCTxwYXRoIHRyYW5zZm9ybT0icm90YXRlKDMzMCA4LjUyMyAxNC4yNDQpIiBkPSJNNC40OSAxMy40NWg4LjA0djEuNTlINC40OXoiIGNsYXNzPSJzdDEiLz4mI3hhOwkJPHBhdGggZD0iTTExLjIgNC4xOWgxLjU5djguMDRIMTEuMnoiIGNsYXNzPSJzdDEiLz4mI3hhOwk8L2c+JiN4YTsJPGcgY2xhc3M9InN0MiI+JiN4YTsJCTxjaXJjbGUgY3g9IjkuMTYiIGN5PSIxMC4yMyIgcj0iMi43OCIvPiYjeGE7CQk8Y2lyY2xlIGN4PSIyLjE5IiBjeT0iMTQuMjUiIHI9IjIuMTkiLz4mI3hhOwkJPGNpcmNsZSBjeD0iMTYuMTMiIGN5PSIxNC4yNSIgcj0iMi4xOSIvPiYjeGE7CQk8Y2lyY2xlIGN4PSI5LjE2IiBjeT0iMi4xOSIgcj0iMi4xOSIvPiYjeGE7CTwvZz4mI3hhOzwvc3ZnPg==;" parent="wiGKPjVVIxpK9OQSMamk-110" vertex="1">
          <mxGeometry x="20" width="49.76" height="55" as="geometry" />
        </mxCell>
        <mxCell id="wiGKPjVVIxpK9OQSMamk-109" value="(Notification&lt;div&gt;Service)&lt;/div&gt;" style="text;html=1;align=center;verticalAlign=middle;resizable=0;points=[];autosize=1;strokeColor=none;fillColor=none;" parent="wiGKPjVVIxpK9OQSMamk-110" vertex="1">
          <mxGeometry y="65" width="90" height="40" as="geometry" />
        </mxCell>
        <mxCell id="wiGKPjVVIxpK9OQSMamk-111" style="edgeStyle=orthogonalEdgeStyle;rounded=0;orthogonalLoop=1;jettySize=auto;html=1;entryX=0.5;entryY=-0.055;entryDx=0;entryDy=0;entryPerimeter=0;" parent="1" target="wiGKPjVVIxpK9OQSMamk-74" edge="1">
          <mxGeometry relative="1" as="geometry">
            <mxPoint x="690" y="320" as="sourcePoint" />
            <Array as="points">
              <mxPoint x="690" y="370" />
              <mxPoint x="438" y="370" />
            </Array>
          </mxGeometry>
        </mxCell>
        <mxCell id="wiGKPjVVIxpK9OQSMamk-112" style="edgeStyle=orthogonalEdgeStyle;rounded=0;orthogonalLoop=1;jettySize=auto;html=1;entryX=0.514;entryY=0.07;entryDx=0;entryDy=0;entryPerimeter=0;startArrow=classic;startFill=1;exitX=0.497;exitY=0.881;exitDx=0;exitDy=0;exitPerimeter=0;" parent="1" source="wiGKPjVVIxpK9OQSMamk-154" target="wiGKPjVVIxpK9OQSMamk-8" edge="1">
          <mxGeometry relative="1" as="geometry">
            <mxPoint x="690" y="310" as="sourcePoint" />
            <Array as="points">
              <mxPoint x="690" y="370" />
              <mxPoint x="281" y="370" />
            </Array>
          </mxGeometry>
        </mxCell>
        <mxCell id="wiGKPjVVIxpK9OQSMamk-113" style="edgeStyle=orthogonalEdgeStyle;rounded=0;orthogonalLoop=1;jettySize=auto;html=1;exitX=0.5;exitY=0;exitDx=0;exitDy=0;entryX=0.482;entryY=1.067;entryDx=0;entryDy=0;entryPerimeter=0;" parent="1" source="wiGKPjVVIxpK9OQSMamk-75" edge="1" target="wiGKPjVVIxpK9OQSMamk-151">
          <mxGeometry relative="1" as="geometry">
            <mxPoint x="492" y="110" as="targetPoint" />
            <Array as="points">
              <mxPoint x="690" y="150" />
              <mxPoint x="613" y="150" />
            </Array>
          </mxGeometry>
        </mxCell>
        <mxCell id="wiGKPjVVIxpK9OQSMamk-114" style="edgeStyle=orthogonalEdgeStyle;rounded=0;orthogonalLoop=1;jettySize=auto;html=1;entryX=0.567;entryY=0.938;entryDx=0;entryDy=0;entryPerimeter=0;" parent="1" source="wiGKPjVVIxpK9OQSMamk-75" target="wiGKPjVVIxpK9OQSMamk-109" edge="1">
          <mxGeometry relative="1" as="geometry">
            <Array as="points">
              <mxPoint x="690" y="150" />
              <mxPoint x="796" y="150" />
            </Array>
            <mxPoint x="630" y="110" as="targetPoint" />
          </mxGeometry>
        </mxCell>
        <mxCell id="wiGKPjVVIxpK9OQSMamk-115" style="edgeStyle=orthogonalEdgeStyle;rounded=0;orthogonalLoop=1;jettySize=auto;html=1;" parent="1" source="wiGKPjVVIxpK9OQSMamk-97" edge="1">
          <mxGeometry relative="1" as="geometry">
            <mxPoint x="760" y="686" as="targetPoint" />
          </mxGeometry>
        </mxCell>
        <mxCell id="wiGKPjVVIxpK9OQSMamk-117" style="edgeStyle=orthogonalEdgeStyle;rounded=0;orthogonalLoop=1;jettySize=auto;html=1;entryX=0.513;entryY=1.038;entryDx=0;entryDy=0;exitX=1;exitY=0.5;exitDx=0;exitDy=0;entryPerimeter=0;" parent="1" source="wiGKPjVVIxpK9OQSMamk-104" target="wiGKPjVVIxpK9OQSMamk-132" edge="1">
          <mxGeometry relative="1" as="geometry">
            <mxPoint x="930" y="500" as="targetPoint" />
          </mxGeometry>
        </mxCell>
        <mxCell id="wiGKPjVVIxpK9OQSMamk-118" style="edgeStyle=orthogonalEdgeStyle;rounded=0;orthogonalLoop=1;jettySize=auto;html=1;entryX=0;entryY=0.5;entryDx=0;entryDy=0;" parent="1" source="wiGKPjVVIxpK9OQSMamk-76" target="wiGKPjVVIxpK9OQSMamk-67" edge="1">
          <mxGeometry relative="1" as="geometry" />
        </mxCell>
        <mxCell id="wiGKPjVVIxpK9OQSMamk-119" style="edgeStyle=orthogonalEdgeStyle;rounded=0;orthogonalLoop=1;jettySize=auto;html=1;" parent="1" source="wiGKPjVVIxpK9OQSMamk-67" target="wiGKPjVVIxpK9OQSMamk-86" edge="1">
          <mxGeometry relative="1" as="geometry" />
        </mxCell>
        <mxCell id="wiGKPjVVIxpK9OQSMamk-122" style="edgeStyle=orthogonalEdgeStyle;rounded=0;orthogonalLoop=1;jettySize=auto;html=1;exitX=0;exitY=0.75;exitDx=0;exitDy=0;entryX=0.5;entryY=0;entryDx=0;entryDy=0;startArrow=classic;startFill=1;" parent="1" source="wiGKPjVVIxpK9OQSMamk-67" target="wiGKPjVVIxpK9OQSMamk-61" edge="1">
          <mxGeometry relative="1" as="geometry" />
        </mxCell>
        <mxCell id="wiGKPjVVIxpK9OQSMamk-123" style="edgeStyle=orthogonalEdgeStyle;rounded=0;orthogonalLoop=1;jettySize=auto;html=1;entryX=0.25;entryY=0;entryDx=0;entryDy=0;exitX=0.481;exitY=0.903;exitDx=0;exitDy=0;exitPerimeter=0;startArrow=classic;startFill=1;" parent="1" source="wiGKPjVVIxpK9OQSMamk-141" target="wiGKPjVVIxpK9OQSMamk-11" edge="1">
          <mxGeometry relative="1" as="geometry">
            <mxPoint x="990" y="390" as="sourcePoint" />
          </mxGeometry>
        </mxCell>
        <mxCell id="wiGKPjVVIxpK9OQSMamk-127" value="" style="group" parent="1" vertex="1" connectable="0">
          <mxGeometry x="230" y="478.6" width="100" height="81.40000000000003" as="geometry" />
        </mxCell>
        <mxCell id="wiGKPjVVIxpK9OQSMamk-8" value="" style="points=[];aspect=fixed;html=1;align=center;shadow=0;dashed=0;fillColor=#FF6A00;strokeColor=none;shape=mxgraph.alibaba_cloud.redis_kvstore;" parent="wiGKPjVVIxpK9OQSMamk-127" vertex="1">
          <mxGeometry x="23.75" width="52.5" height="41.4" as="geometry" />
        </mxCell>
        <mxCell id="wiGKPjVVIxpK9OQSMamk-126" value="Redis&lt;div&gt;Cache Server&lt;/div&gt;" style="text;html=1;align=center;verticalAlign=middle;resizable=0;points=[];autosize=1;strokeColor=none;fillColor=none;" parent="wiGKPjVVIxpK9OQSMamk-127" vertex="1">
          <mxGeometry y="41.400000000000034" width="100" height="40" as="geometry" />
        </mxCell>
        <mxCell id="wiGKPjVVIxpK9OQSMamk-131" value="" style="group" parent="1" vertex="1" connectable="0">
          <mxGeometry x="493" y="653" width="90" height="111" as="geometry" />
        </mxCell>
        <mxCell id="wiGKPjVVIxpK9OQSMamk-103" value="" style="group" parent="wiGKPjVVIxpK9OQSMamk-131" vertex="1" connectable="0">
          <mxGeometry x="17" width="56" height="85.72000000000003" as="geometry" />
        </mxCell>
        <mxCell id="wiGKPjVVIxpK9OQSMamk-97" value="" style="image;aspect=fixed;perimeter=ellipsePerimeter;html=1;align=center;shadow=0;dashed=0;spacingTop=3;image=img/lib/active_directory/generic_server.svg;" parent="wiGKPjVVIxpK9OQSMamk-103" vertex="1">
          <mxGeometry x="10" width="38" height="67.86" as="geometry" />
        </mxCell>
        <mxCell id="wiGKPjVVIxpK9OQSMamk-102" value="" style="html=1;verticalLabelPosition=bottom;align=center;labelBackgroundColor=#ffffff;verticalAlign=top;strokeWidth=2;strokeColor=#0080F0;shadow=0;dashed=0;shape=mxgraph.ios7.icons.location;" parent="wiGKPjVVIxpK9OQSMamk-103" vertex="1">
          <mxGeometry x="32" y="45.72000000000003" width="24" height="30" as="geometry" />
        </mxCell>
        <mxCell id="wiGKPjVVIxpK9OQSMamk-129" value="Third Party&lt;div&gt;Map Provider&lt;/div&gt;" style="text;html=1;align=center;verticalAlign=middle;resizable=0;points=[];autosize=1;strokeColor=none;fillColor=none;" parent="wiGKPjVVIxpK9OQSMamk-131" vertex="1">
          <mxGeometry y="71" width="90" height="40" as="geometry" />
        </mxCell>
        <mxCell id="wiGKPjVVIxpK9OQSMamk-136" value="" style="group" parent="1" vertex="1" connectable="0">
          <mxGeometry x="390" y="465" width="88" height="125" as="geometry" />
        </mxCell>
        <mxCell id="wiGKPjVVIxpK9OQSMamk-74" value="" style="image;aspect=fixed;html=1;points=[];align=center;fontSize=12;image=img/lib/azure2/databases/Azure_Database_PostgreSQL_Server.svg;" parent="wiGKPjVVIxpK9OQSMamk-136" vertex="1">
          <mxGeometry x="24" width="48" height="64" as="geometry" />
        </mxCell>
        <mxCell id="wiGKPjVVIxpK9OQSMamk-133" value="" style="group" parent="wiGKPjVVIxpK9OQSMamk-136" vertex="1" connectable="0">
          <mxGeometry y="8" width="88" height="117" as="geometry" />
        </mxCell>
        <mxCell id="wiGKPjVVIxpK9OQSMamk-134" value="" style="image;aspect=fixed;html=1;points=[];align=center;fontSize=12;image=img/lib/azure2/databases/Azure_Database_PostgreSQL_Server.svg;" parent="wiGKPjVVIxpK9OQSMamk-133" vertex="1">
          <mxGeometry x="16" width="48" height="64" as="geometry" />
        </mxCell>
        <mxCell id="wiGKPjVVIxpK9OQSMamk-124" value="Relational&lt;div&gt;Database&lt;/div&gt;&lt;div&gt;Cluster&lt;/div&gt;" style="text;html=1;align=center;verticalAlign=middle;resizable=0;points=[];autosize=1;strokeColor=none;fillColor=none;" parent="wiGKPjVVIxpK9OQSMamk-133" vertex="1">
          <mxGeometry x="8" y="57" width="80" height="60" as="geometry" />
        </mxCell>
        <mxCell id="wiGKPjVVIxpK9OQSMamk-140" value="" style="group" parent="1" vertex="1" connectable="0">
          <mxGeometry x="942.5" y="460.7" width="120" height="109.30000000000001" as="geometry" />
        </mxCell>
        <mxCell id="wiGKPjVVIxpK9OQSMamk-63" value="" style="group" parent="wiGKPjVVIxpK9OQSMamk-140" vertex="1" connectable="0">
          <mxGeometry x="33.5" width="53" height="69.30000000000001" as="geometry" />
        </mxCell>
        <mxCell id="wiGKPjVVIxpK9OQSMamk-11" value="" style="image;html=1;image=img/lib/clip_art/computers/Database_128x128.png" parent="wiGKPjVVIxpK9OQSMamk-63" vertex="1">
          <mxGeometry width="53" height="60" as="geometry" />
        </mxCell>
        <mxCell id="wiGKPjVVIxpK9OQSMamk-62" value="" style="image;aspect=fixed;html=1;points=[];align=center;fontSize=12;image=img/lib/azure2/management_governance/Resource_Graph_Explorer.svg;" parent="wiGKPjVVIxpK9OQSMamk-63" vertex="1">
          <mxGeometry x="10.431746031746012" y="25.71428571428576" width="31.126984126984127" height="29.730476190476192" as="geometry" />
        </mxCell>
        <mxCell id="wiGKPjVVIxpK9OQSMamk-137" value="" style="group" parent="wiGKPjVVIxpK9OQSMamk-63" vertex="1" connectable="0">
          <mxGeometry x="-7" y="9.300000000000011" width="53" height="60" as="geometry" />
        </mxCell>
        <mxCell id="wiGKPjVVIxpK9OQSMamk-138" value="" style="image;html=1;image=img/lib/clip_art/computers/Database_128x128.png" parent="wiGKPjVVIxpK9OQSMamk-137" vertex="1">
          <mxGeometry width="53" height="60" as="geometry" />
        </mxCell>
        <mxCell id="wiGKPjVVIxpK9OQSMamk-139" value="" style="image;aspect=fixed;html=1;points=[];align=center;fontSize=12;image=img/lib/azure2/management_governance/Resource_Graph_Explorer.svg;" parent="wiGKPjVVIxpK9OQSMamk-137" vertex="1">
          <mxGeometry x="10.431746031746012" y="25.71428571428576" width="31.126984126984127" height="29.730476190476192" as="geometry" />
        </mxCell>
        <mxCell id="wiGKPjVVIxpK9OQSMamk-132" value="Graph&lt;div&gt;Database Cluster&lt;/div&gt;" style="text;html=1;align=center;verticalAlign=middle;resizable=0;points=[];autosize=1;strokeColor=none;fillColor=none;" parent="wiGKPjVVIxpK9OQSMamk-140" vertex="1">
          <mxGeometry y="69.30000000000001" width="120" height="40" as="geometry" />
        </mxCell>
        <mxCell id="wiGKPjVVIxpK9OQSMamk-144" value="" style="group" parent="1" vertex="1" connectable="0">
          <mxGeometry x="750" y="465" width="90" height="95" as="geometry" />
        </mxCell>
        <mxCell id="wiGKPjVVIxpK9OQSMamk-65" value="" style="group" parent="wiGKPjVVIxpK9OQSMamk-144" vertex="1" connectable="0">
          <mxGeometry x="20" width="56" height="65" as="geometry" />
        </mxCell>
        <mxCell id="wiGKPjVVIxpK9OQSMamk-61" value="" style="image;html=1;image=img/lib/clip_art/computers/Database_128x128.png" parent="wiGKPjVVIxpK9OQSMamk-65" vertex="1">
          <mxGeometry width="56" height="65" as="geometry" />
        </mxCell>
        <mxCell id="wiGKPjVVIxpK9OQSMamk-64" value="" style="image;sketch=0;aspect=fixed;html=1;points=[];align=center;fontSize=12;image=img/lib/mscae/Key.svg;" parent="wiGKPjVVIxpK9OQSMamk-65" vertex="1">
          <mxGeometry x="19.09090909090909" y="25.293124999999996" width="17.0625" height="27.519374999999997" as="geometry" />
        </mxCell>
        <mxCell id="wiGKPjVVIxpK9OQSMamk-143" value="KV Database" style="text;html=1;align=center;verticalAlign=middle;resizable=0;points=[];autosize=1;strokeColor=none;fillColor=none;" parent="wiGKPjVVIxpK9OQSMamk-144" vertex="1">
          <mxGeometry y="65" width="90" height="30" as="geometry" />
        </mxCell>
        <mxCell id="wiGKPjVVIxpK9OQSMamk-146" value="" style="group" parent="1" vertex="1" connectable="0">
          <mxGeometry x="60" y="70" width="50" height="75" as="geometry" />
        </mxCell>
        <mxCell id="wiGKPjVVIxpK9OQSMamk-1" value="" style="sketch=0;outlineConnect=0;fontColor=#232F3E;gradientColor=none;fillColor=#232F3D;strokeColor=none;dashed=0;verticalLabelPosition=bottom;verticalAlign=top;align=center;html=1;fontSize=12;fontStyle=0;aspect=fixed;pointerEvents=1;shape=mxgraph.aws4.user;" parent="wiGKPjVVIxpK9OQSMamk-146" vertex="1">
          <mxGeometry width="50" height="50" as="geometry" />
        </mxCell>
        <mxCell id="wiGKPjVVIxpK9OQSMamk-145" value="User" style="text;html=1;align=center;verticalAlign=middle;resizable=0;points=[];autosize=1;strokeColor=none;fillColor=none;" parent="wiGKPjVVIxpK9OQSMamk-146" vertex="1">
          <mxGeometry y="45" width="50" height="30" as="geometry" />
        </mxCell>
        <mxCell id="wiGKPjVVIxpK9OQSMamk-148" value="" style="group" parent="1" vertex="1" connectable="0">
          <mxGeometry x="40" y="340" width="90" height="90" as="geometry" />
        </mxCell>
        <mxCell id="wiGKPjVVIxpK9OQSMamk-2" value="" style="shape=mxgraph.signs.transportation.bus_4;html=1;pointerEvents=1;fillColor=#000000;strokeColor=none;verticalLabelPosition=bottom;verticalAlign=top;align=center;" parent="wiGKPjVVIxpK9OQSMamk-148" vertex="1">
          <mxGeometry x="20" width="50" height="60" as="geometry" />
        </mxCell>
        <mxCell id="wiGKPjVVIxpK9OQSMamk-147" value="Bus Operator" style="text;html=1;align=center;verticalAlign=middle;resizable=0;points=[];autosize=1;strokeColor=none;fillColor=none;" parent="wiGKPjVVIxpK9OQSMamk-148" vertex="1">
          <mxGeometry y="60" width="90" height="30" as="geometry" />
        </mxCell>
        <mxCell id="wiGKPjVVIxpK9OQSMamk-150" value="" style="group" parent="1" vertex="1" connectable="0">
          <mxGeometry x="260" y="69" width="88.39999999999998" height="82" as="geometry" />
        </mxCell>
        <mxCell id="wiGKPjVVIxpK9OQSMamk-6" value="" style="image;aspect=fixed;html=1;points=[];align=center;fontSize=12;image=img/lib/azure2/networking/CDN_Profiles.svg;" parent="wiGKPjVVIxpK9OQSMamk-150" vertex="1">
          <mxGeometry width="88.4" height="52" as="geometry" />
        </mxCell>
        <mxCell id="wiGKPjVVIxpK9OQSMamk-149" value="CDN" style="text;html=1;align=center;verticalAlign=middle;resizable=0;points=[];autosize=1;strokeColor=none;fillColor=none;" parent="wiGKPjVVIxpK9OQSMamk-150" vertex="1">
          <mxGeometry x="30" y="52" width="50" height="30" as="geometry" />
        </mxCell>
        <mxCell id="wiGKPjVVIxpK9OQSMamk-152" value="" style="group" parent="1" vertex="1" connectable="0">
          <mxGeometry x="560" y="18.5" width="110" height="100" as="geometry" />
        </mxCell>
        <mxCell id="wiGKPjVVIxpK9OQSMamk-83" value="" style="group" parent="wiGKPjVVIxpK9OQSMamk-152" vertex="1" connectable="0">
          <mxGeometry x="25" width="60" height="82" as="geometry" />
        </mxCell>
        <mxCell id="wiGKPjVVIxpK9OQSMamk-78" value="" style="image;aspect=fixed;perimeter=ellipsePerimeter;html=1;align=center;shadow=0;dashed=0;spacingTop=3;image=img/lib/active_directory/generic_server.svg;" parent="wiGKPjVVIxpK9OQSMamk-83" vertex="1">
          <mxGeometry width="42.32258064516129" height="75.57225806451612" as="geometry" />
        </mxCell>
        <mxCell id="wiGKPjVVIxpK9OQSMamk-79" value="" style="html=1;verticalLabelPosition=bottom;align=center;labelBackgroundColor=#ffffff;verticalAlign=top;strokeWidth=2;strokeColor=#0080F0;shadow=0;dashed=0;shape=mxgraph.ios7.icons.credit_card;" parent="wiGKPjVVIxpK9OQSMamk-83" vertex="1">
          <mxGeometry x="20" y="43.05215260763038" width="40" height="23.917862559794656" as="geometry" />
        </mxCell>
        <mxCell id="wiGKPjVVIxpK9OQSMamk-151" value="Payment Service" style="text;html=1;align=center;verticalAlign=middle;resizable=0;points=[];autosize=1;strokeColor=none;fillColor=none;" parent="wiGKPjVVIxpK9OQSMamk-152" vertex="1">
          <mxGeometry y="70" width="110" height="30" as="geometry" />
        </mxCell>
        <mxCell id="wiGKPjVVIxpK9OQSMamk-153" value="Web Server" style="text;html=1;align=center;verticalAlign=middle;resizable=0;points=[];autosize=1;strokeColor=none;fillColor=none;" parent="1" vertex="1">
          <mxGeometry x="455" y="277.5" width="90" height="30" as="geometry" />
        </mxCell>
        <mxCell id="IsKLTyy1eamRWtbRPvsy-2" value="" style="group" vertex="1" connectable="0" parent="1">
          <mxGeometry x="248.4" y="217.5" width="99.99999999999997" height="88.56" as="geometry" />
        </mxCell>
        <mxCell id="wiGKPjVVIxpK9OQSMamk-3" value="" style="outlineConnect=0;dashed=0;verticalLabelPosition=bottom;verticalAlign=top;align=center;html=1;shape=mxgraph.aws3.classic_load_balancer;fillColor=#F58534;gradientColor=none;" parent="IsKLTyy1eamRWtbRPvsy-2" vertex="1">
          <mxGeometry x="19.599999999999994" width="60" height="60" as="geometry" />
        </mxCell>
        <mxCell id="IsKLTyy1eamRWtbRPvsy-1" value="Load Balancer" style="text;html=1;align=center;verticalAlign=middle;resizable=0;points=[];autosize=1;strokeColor=none;fillColor=none;" vertex="1" parent="IsKLTyy1eamRWtbRPvsy-2">
          <mxGeometry y="58.56" width="100" height="30" as="geometry" />
        </mxCell>
        <mxCell id="IsKLTyy1eamRWtbRPvsy-3" value="" style="group" vertex="1" connectable="0" parent="1">
          <mxGeometry x="931.54" y="222" width="120" height="113.38" as="geometry" />
        </mxCell>
        <mxCell id="wiGKPjVVIxpK9OQSMamk-67" value="" style="image;aspect=fixed;perimeter=ellipsePerimeter;html=1;align=center;shadow=0;dashed=0;spacingTop=3;image=img/lib/active_directory/generic_server.svg;" parent="IsKLTyy1eamRWtbRPvsy-3" vertex="1">
          <mxGeometry x="39.460000000000036" width="41.08978988628983" height="73.3768824777091" as="geometry" />
        </mxCell>
        <mxCell id="wiGKPjVVIxpK9OQSMamk-68" value="" style="points=[];aspect=fixed;html=1;align=center;shadow=0;dashed=0;fillColor=#FF6A00;strokeColor=none;shape=mxgraph.alibaba_cloud.cdn_content_distribution_network;" parent="IsKLTyy1eamRWtbRPvsy-3" vertex="1">
          <mxGeometry x="59.4587141483421" y="38.85731195697434" width="26.866401079497198" height="22.283309130641793" as="geometry" />
        </mxCell>
        <mxCell id="wiGKPjVVIxpK9OQSMamk-141" value="Graph Processing&lt;div&gt;Service&lt;/div&gt;" style="text;html=1;align=center;verticalAlign=middle;resizable=0;points=[];autosize=1;strokeColor=none;fillColor=none;" parent="IsKLTyy1eamRWtbRPvsy-3" vertex="1">
          <mxGeometry y="73.38" width="120" height="40" as="geometry" />
        </mxCell>
        <mxCell id="IsKLTyy1eamRWtbRPvsy-7" value="" style="group" vertex="1" connectable="0" parent="1">
          <mxGeometry x="560" y="454.50000000000006" width="80" height="105.5" as="geometry" />
        </mxCell>
        <mxCell id="IsKLTyy1eamRWtbRPvsy-4" value="" style="image;aspect=fixed;perimeter=ellipsePerimeter;html=1;align=center;shadow=0;dashed=0;spacingTop=3;image=img/lib/active_directory/generic_server.svg;" vertex="1" parent="IsKLTyy1eamRWtbRPvsy-7">
          <mxGeometry x="20" width="39.76" height="71" as="geometry" />
        </mxCell>
        <mxCell id="IsKLTyy1eamRWtbRPvsy-5" value="" style="html=1;verticalLabelPosition=bottom;align=center;labelBackgroundColor=#ffffff;verticalAlign=top;strokeWidth=2;strokeColor=#0080F0;shadow=0;dashed=0;shape=mxgraph.ios7.icons.looking_glass;" vertex="1" parent="IsKLTyy1eamRWtbRPvsy-7">
          <mxGeometry x="40.39999999999998" y="40.85" width="25" height="25" as="geometry" />
        </mxCell>
        <mxCell id="IsKLTyy1eamRWtbRPvsy-6" value="Distributed&lt;div&gt;Search&lt;/div&gt;" style="text;html=1;align=center;verticalAlign=middle;resizable=0;points=[];autosize=1;strokeColor=none;fillColor=none;" vertex="1" parent="IsKLTyy1eamRWtbRPvsy-7">
          <mxGeometry y="65.5" width="80" height="40" as="geometry" />
        </mxCell>
        <mxCell id="IsKLTyy1eamRWtbRPvsy-8" style="edgeStyle=orthogonalEdgeStyle;rounded=0;orthogonalLoop=1;jettySize=auto;html=1;entryX=0.5;entryY=0;entryDx=0;entryDy=0;" edge="1" parent="1" source="wiGKPjVVIxpK9OQSMamk-154" target="IsKLTyy1eamRWtbRPvsy-4">
          <mxGeometry relative="1" as="geometry">
            <Array as="points">
              <mxPoint x="690" y="370" />
              <mxPoint x="600" y="370" />
            </Array>
          </mxGeometry>
        </mxCell>
        <mxCell id="IsKLTyy1eamRWtbRPvsy-11" value="" style="group" vertex="1" connectable="0" parent="1">
          <mxGeometry x="600" y="604" width="190" height="30" as="geometry" />
        </mxCell>
        <mxCell id="IsKLTyy1eamRWtbRPvsy-9" style="edgeStyle=orthogonalEdgeStyle;rounded=0;orthogonalLoop=1;jettySize=auto;html=1;entryX=0.5;entryY=1;entryDx=0;entryDy=0;entryPerimeter=0;" edge="1" parent="IsKLTyy1eamRWtbRPvsy-11" source="wiGKPjVVIxpK9OQSMamk-104" target="IsKLTyy1eamRWtbRPvsy-6">
          <mxGeometry relative="1" as="geometry">
            <Array as="points">
              <mxPoint x="190" y="26" />
              <mxPoint y="26" />
            </Array>
          </mxGeometry>
        </mxCell>
        <mxCell id="IsKLTyy1eamRWtbRPvsy-10" value="(PlaceId, Lat/Long)" style="text;html=1;align=center;verticalAlign=middle;resizable=0;points=[];autosize=1;strokeColor=none;fillColor=none;" vertex="1" parent="IsKLTyy1eamRWtbRPvsy-11">
          <mxGeometry x="36" width="120" height="30" as="geometry" />
        </mxCell>
        <mxCell id="IsKLTyy1eamRWtbRPvsy-13" value="" style="group" vertex="1" connectable="0" parent="1">
          <mxGeometry x="800" y="570" width="120" height="70" as="geometry" />
        </mxCell>
        <mxCell id="wiGKPjVVIxpK9OQSMamk-116" style="edgeStyle=orthogonalEdgeStyle;rounded=0;orthogonalLoop=1;jettySize=auto;html=1;entryX=0.444;entryY=1.017;entryDx=0;entryDy=0;entryPerimeter=0;" parent="IsKLTyy1eamRWtbRPvsy-13" source="wiGKPjVVIxpK9OQSMamk-104" target="wiGKPjVVIxpK9OQSMamk-143" edge="1">
          <mxGeometry relative="1" as="geometry">
            <mxPoint x="-9" as="targetPoint" />
          </mxGeometry>
        </mxCell>
        <mxCell id="IsKLTyy1eamRWtbRPvsy-12" value="(SegmentId,&lt;div&gt;&lt;span style=&quot;background-color: initial;&quot;&gt;ServerId)&lt;/span&gt;&lt;div&gt;&lt;span style=&quot;background-color: initial;&quot;&gt;(SegmentId,&lt;/span&gt;&lt;/div&gt;&lt;div&gt;&lt;span style=&quot;background-color: initial;&quot;&gt;Lat/Long Coords)&lt;/span&gt;&lt;/div&gt;&lt;/div&gt;" style="text;html=1;align=left;verticalAlign=middle;resizable=0;points=[];autosize=1;strokeColor=none;fillColor=none;" vertex="1" parent="IsKLTyy1eamRWtbRPvsy-13">
          <mxGeometry width="120" height="70" as="geometry" />
        </mxCell>
        <mxCell id="IsKLTyy1eamRWtbRPvsy-17" value="" style="group" vertex="1" connectable="0" parent="1">
          <mxGeometry x="405.6" y="18.5" width="100" height="110" as="geometry" />
        </mxCell>
        <mxCell id="IsKLTyy1eamRWtbRPvsy-14" value="" style="image;aspect=fixed;perimeter=ellipsePerimeter;html=1;align=center;shadow=0;dashed=0;spacingTop=3;image=img/lib/active_directory/generic_server.svg;" vertex="1" parent="IsKLTyy1eamRWtbRPvsy-17">
          <mxGeometry x="27.599999999999966" width="44.8" height="80" as="geometry" />
        </mxCell>
        <mxCell id="IsKLTyy1eamRWtbRPvsy-15" value="" style="image;aspect=fixed;html=1;points=[];align=center;fontSize=12;image=img/lib/azure2/general/Scheduler.svg;" vertex="1" parent="IsKLTyy1eamRWtbRPvsy-17">
          <mxGeometry x="49.39999999999998" y="40.5" width="39.5" height="39.5" as="geometry" />
        </mxCell>
        <mxCell id="IsKLTyy1eamRWtbRPvsy-16" value="Task Schedule" style="text;html=1;align=center;verticalAlign=middle;resizable=0;points=[];autosize=1;strokeColor=none;fillColor=none;" vertex="1" parent="IsKLTyy1eamRWtbRPvsy-17">
          <mxGeometry y="80" width="100" height="30" as="geometry" />
        </mxCell>
        <mxCell id="IsKLTyy1eamRWtbRPvsy-19" style="edgeStyle=orthogonalEdgeStyle;rounded=0;orthogonalLoop=1;jettySize=auto;html=1;entryX=0.544;entryY=0.717;entryDx=0;entryDy=0;entryPerimeter=0;" edge="1" parent="1" source="wiGKPjVVIxpK9OQSMamk-75" target="IsKLTyy1eamRWtbRPvsy-16">
          <mxGeometry relative="1" as="geometry">
            <Array as="points">
              <mxPoint x="690" y="150" />
              <mxPoint x="460" y="150" />
            </Array>
          </mxGeometry>
        </mxCell>
        <mxCell id="IsKLTyy1eamRWtbRPvsy-21" value="" style="group" vertex="1" connectable="0" parent="1">
          <mxGeometry x="730" y="56" width="170" height="172" as="geometry" />
        </mxCell>
        <mxCell id="wiGKPjVVIxpK9OQSMamk-121" style="edgeStyle=orthogonalEdgeStyle;rounded=0;orthogonalLoop=1;jettySize=auto;html=1;entryX=1;entryY=0.25;entryDx=0;entryDy=0;" parent="IsKLTyy1eamRWtbRPvsy-21" source="wiGKPjVVIxpK9OQSMamk-72" target="wiGKPjVVIxpK9OQSMamk-75" edge="1">
          <mxGeometry relative="1" as="geometry">
            <Array as="points">
              <mxPoint x="170" />
              <mxPoint x="170" y="167" />
            </Array>
          </mxGeometry>
        </mxCell>
        <mxCell id="IsKLTyy1eamRWtbRPvsy-20" value="Aggregates query results" style="text;html=1;align=center;verticalAlign=middle;resizable=0;points=[];autosize=1;strokeColor=none;fillColor=none;" vertex="1" parent="IsKLTyy1eamRWtbRPvsy-21">
          <mxGeometry y="142" width="160" height="30" as="geometry" />
        </mxCell>
      </root>
    </mxGraphModel>
  </diagram>
</mxfile>
